<svg xmlns="http://www.w3.org/2000/svg" xmlns:xlink="http://www.w3.org/1999/xlink" width="480" zoomAndPan="magnify" viewBox="0 0 360 359.999987" height="480" preserveAspectRatio="xMidYMid meet" version="1.0"><defs><clipPath id="a5f64da2cc"><path d="M 23.636719 5.78125 L 336.386719 5.78125 L 336.386719 354.53125 L 23.636719 354.53125 Z M 23.636719 5.78125 " clip-rule="nonzero"/></clipPath></defs><g clip-path="url(#a5f64da2cc)"><path fill="#2254c5" d="M 336.3125 132.921875 L 336.3125 162.839844 C 336.3125 176.585938 325.179688 187.769531 311.496094 187.769531 C 297.8125 187.769531 286.679688 176.582031 286.679688 162.839844 L 286.679688 141.039062 C 286.664062 140.792969 286.539062 140.585938 286.539062 140.339844 C 286.539062 79.886719 238.667969 30.707031 179.824219 30.707031 C 122.335938 30.707031 75.449219 77.675781 73.3125 136.210938 L 73.3125 167.828125 C 73.3125 184.320312 86.671875 197.742188 103.09375 197.742188 C 108.578125 197.742188 113.023438 202.207031 113.023438 207.710938 C 113.023438 213.21875 108.578125 217.683594 103.09375 217.683594 C 82.179688 217.683594 64.335938 204.582031 57.035156 186.152344 C 54.363281 187.144531 51.507812 187.769531 48.496094 187.769531 C 34.8125 187.769531 23.679688 176.585938 23.679688 162.839844 L 23.679688 132.921875 C 23.679688 119.175781 34.8125 107.992188 48.496094 107.992188 C 49.761719 107.992188 50.980469 108.183594 52.199219 108.371094 C 66.28125 49.585938 118.078125 5.78125 179.824219 5.78125 C 241.578125 5.78125 293.386719 49.601562 307.457031 108.402344 C 308.777344 108.183594 310.113281 107.992188 311.496094 107.992188 C 325.179688 107.992188 336.3125 119.179688 336.3125 132.921875 Z M 261.65625 140.339844 C 261.65625 94.941406 225.019531 58.132812 179.820312 58.132812 C 134.628906 58.132812 97.992188 94.941406 97.992188 140.339844 C 97.992188 185.742188 134.628906 222.542969 179.820312 222.542969 C 225.019531 222.546875 261.65625 185.742188 261.65625 140.339844 Z M 261.289062 247.476562 L 232.152344 247.476562 C 225.667969 247.476562 219.589844 250.65625 215.878906 256 L 195.507812 285.285156 C 187.542969 296.742188 170.621094 296.628906 162.808594 285.066406 L 143.308594 256.214844 C 139.613281 250.75 133.460938 247.472656 126.882812 247.472656 L 98.273438 247.472656 C 61.425781 247.472656 31.554688 277.480469 31.554688 314.496094 L 31.554688 344.242188 C 31.554688 349.75 35.996094 354.210938 41.480469 354.210938 L 318.082031 354.210938 C 323.5625 354.210938 328.007812 349.746094 328.007812 344.242188 L 328.007812 314.496094 C 328.007812 277.484375 298.136719 247.476562 261.289062 247.476562 Z M 261.289062 247.476562 " fill-opacity="1" fill-rule="nonzero"/></g></svg>